<svg xmlns="http://www.w3.org/2000/svg" width="350" height="75" viewBox="0 0 350 75">
  <metadata><?xpacket begin="﻿" id="W5M0MpCehiHzreSzNTczkc9d"?>
<x:xmpmeta xmlns:x="adobe:ns:meta/" x:xmptk="Adobe XMP Core 5.6-c138 79.159824, 2016/09/14-01:09:01        ">
   <rdf:RDF xmlns:rdf="http://www.w3.org/1999/02/22-rdf-syntax-ns#">
      <rdf:Description rdf:about=""/>
   </rdf:RDF>
</x:xmpmeta>
<?xpacket end="w"?></metadata>
<defs>
    <style>
      .cls-1 {
        fill-rule: evenodd;
      }
    </style>
  </defs>
  <path id="ORGANI" class="cls-1" d="M78.221,48.413c0,6.36,3.18,10.56,9.6,10.56,6.48,0,9.66-4.2,9.66-10.56V26.694c0-6.42-3.18-10.56-9.66-10.56-6.42,0-9.6,4.14-9.6,10.56V48.413Zm4.62-21.959c0-3.78,1.62-6.06,4.98-6.06,3.42,0,4.98,2.28,4.98,6.06v22.2c0,3.84-1.56,6.06-4.98,6.06-3.36,0-4.98-2.22-4.98-6.06v-22.2Zm19.08-9.9v42H106.6V40.614h3.3c3.9,0,6.12,1.5,6.12,6.24v6.6c0,2.82.24,3.9,0.78,5.1h4.74a10.518,10.518,0,0,1-.84-5.04v-6.54c0-4.5-1.44-7.62-5.28-8.76,3.6-1.14,5.22-4.02,5.22-8.64v-3.42c0-6.24-2.76-9.6-9.36-9.6h-9.359Zm4.679,19.8V20.814h4.56c3.48,0,4.86,1.98,4.86,5.76v4.02c0,4.56-2.22,5.76-5.94,5.76H106.6Zm28.02-20.219c-6.42,0-9.42,4.2-9.42,10.56V48.413c0,6.36,3,10.56,9.42,10.56,6.48,0,9.48-4.2,9.48-10.56V36.054h-8.76v4.2h4.32v8.4c0,3.78-1.5,6.06-4.92,6.06-3.36,0-4.92-2.28-4.92-6.06v-22.2c0-3.78,1.56-6.06,4.92-6.06,3.42,0,4.92,2.28,4.92,6.06v3.84h4.44v-3.6C144.1,20.334,141.1,16.135,134.62,16.135Zm29.22,33.959,1.62,8.46h4.68l-8.04-42h-6.78l-8.039,42h4.32l1.619-8.46h10.62Zm-5.4-28.259,4.74,24.239h-9.36Zm19.5,2.76,10.74,33.959h4.86v-42H189.4V46.913l-9.72-30.359h-5.94v42h4.2V24.594Zm20.4-8.04v42h4.68v-42h-4.68Z"/>
  <path id="SER" class="cls-1" d="M216.881,16.255c-6.059.06-8.639,4.26-8.639,10.38,0,11.58,16.079,11.22,16.079,21.839,0,5.1-1.98,9.12-7.5,9.12s-7.5-4.02-7.5-9.12v-2.1h-1.26v2.04c0,5.82,2.4,10.44,8.759,10.44,6.42,0,8.82-4.62,8.82-10.44,0-11.4-16.079-11.1-16.079-21.839,0-4.98,1.86-9.12,7.379-9.12,5.46,0,7.32,4.2,7.32,9.18v0.84h1.32v-0.78C225.581,20.934,223.241,16.255,216.881,16.255Zm14.76,20.4V17.815h14.7v-1.26H230.321v42H246.34v-1.26h-14.7V37.854H244v-1.2H231.641Zm19.379-20.1v42h1.32V39.174h5.16c5.46,0,9.179,1.62,9.179,7.8v6.6a9.524,9.524,0,0,0,1.02,4.98h1.44a8.863,8.863,0,0,1-1.14-4.98v-6.6c0-4.62-1.98-7.68-6.659-8.4,4.619-.84,6.659-3.66,6.659-8.82v-3.78c0-5.76-2.4-9.42-8.639-9.42h-8.34Zm1.32,21.359v-20.1h6.96c5.4,0,7.379,3.18,7.379,8.28v3.84c0,6.48-3.359,7.98-9.179,7.98h-5.16Z"/>
</svg>
